<svg width="542" height="1088" viewBox="0 0 542 1088" fill="none" xmlns="http://www.w3.org/2000/svg">
<g filter="url(#filter0_f_4_342)">
<g filter="url(#filter1_b_4_342)">
<rect x="39.1052" y="144" width="118.421" height="153.642" fill="#382170"/>
</g>
<g filter="url(#filter2_b_4_342)">
<path d="M91.2105 606.462L104.504 659.544H147.523L112.72 692.35L126.014 745.432L91.2105 712.626L56.4075 745.432L69.701 692.35L34.898 659.544H77.9169L91.2105 606.462Z" fill="#45C67D"/>
</g>
<g filter="url(#filter3_b_4_342)">
<path d="M340.722 349.88L392 465.111H289.444L340.722 349.88Z" fill="#00FFA3"/>
</g>
<g filter="url(#filter4_b_4_342)">
<ellipse cx="317.395" cy="746.276" rx="59.2105" ry="76.8209" fill="#7C48BD"/>
</g>
<path d="M191.757 376.261C224.521 363.599 271.673 362.464 286.64 314.278C292.396 295.746 289.095 281.454 275.195 272.322C271.022 269.581 262.726 266.06 258.295 264.035C254.851 262.461 247.195 256.789 243.124 257.819C236.096 259.598 239.266 278.758 240.596 284.063C242.113 290.116 245.076 293.163 247.981 297.875C259.602 316.721 233.315 326.053 222.763 329.212C212.306 332.343 202.008 333.073 192.023 338.795C179.144 346.175 168.988 359.586 159.286 372.462C146.711 389.153 129.947 425.459 155.427 439.453C163.178 443.71 176.114 442.471 173.525 427.798C171.423 415.885 164.156 405.089 168.335 392.318C170.471 385.791 174.177 385.955 178.782 385.412C184.003 384.796 188.276 382.17 192.954 379.369" stroke="#28FF98" stroke-width="25" stroke-linecap="round"/>
<path d="M200.046 878.669C232.81 866.007 279.962 864.873 294.929 816.686C300.685 798.155 297.384 783.862 283.485 774.731C279.312 771.989 271.015 768.468 266.584 766.443C263.14 764.87 255.484 759.197 251.413 760.228C244.385 762.007 247.555 781.166 248.885 786.471C250.402 792.524 253.365 795.572 256.271 800.284C267.891 819.13 241.604 828.462 231.053 831.621C220.596 834.752 210.298 835.481 200.312 841.203C187.433 848.583 177.277 861.994 167.576 874.871C155 891.561 138.236 927.867 163.716 941.861C171.468 946.118 184.403 944.879 181.815 930.207C179.713 918.293 172.446 907.497 176.625 894.726C178.76 888.199 182.467 888.363 187.071 887.82C192.292 887.204 196.565 884.579 201.244 881.777" stroke="#15B598" stroke-width="25" stroke-linecap="round"/>
</g>
<defs>
<filter id="filter0_f_4_342" x="-118" y="-6" width="660" height="1112.51" filterUnits="userSpaceOnUse" color-interpolation-filters="sRGB">
<feFlood flood-opacity="0" result="BackgroundImageFix"/>
<feBlend mode="normal" in="SourceGraphic" in2="BackgroundImageFix" result="shape"/>
<feGaussianBlur stdDeviation="75" result="effect1_foregroundBlur_4_342"/>
</filter>
<filter id="filter1_b_4_342" x="-460.895" y="-356" width="1118.42" height="1153.64" filterUnits="userSpaceOnUse" color-interpolation-filters="sRGB">
<feFlood flood-opacity="0" result="BackgroundImageFix"/>
<feGaussianBlur in="BackgroundImageFix" stdDeviation="250"/>
<feComposite in2="SourceAlpha" operator="in" result="effect1_backgroundBlur_4_342"/>
<feBlend mode="normal" in="SourceGraphic" in2="effect1_backgroundBlur_4_342" result="shape"/>
</filter>
<filter id="filter2_b_4_342" x="-465.102" y="106.462" width="1112.63" height="1138.97" filterUnits="userSpaceOnUse" color-interpolation-filters="sRGB">
<feFlood flood-opacity="0" result="BackgroundImageFix"/>
<feGaussianBlur in="BackgroundImageFix" stdDeviation="250"/>
<feComposite in2="SourceAlpha" operator="in" result="effect1_backgroundBlur_4_342"/>
<feBlend mode="normal" in="SourceGraphic" in2="effect1_backgroundBlur_4_342" result="shape"/>
</filter>
<filter id="filter3_b_4_342" x="-210.556" y="-150.12" width="1102.56" height="1115.23" filterUnits="userSpaceOnUse" color-interpolation-filters="sRGB">
<feFlood flood-opacity="0" result="BackgroundImageFix"/>
<feGaussianBlur in="BackgroundImageFix" stdDeviation="250"/>
<feComposite in2="SourceAlpha" operator="in" result="effect1_backgroundBlur_4_342"/>
<feBlend mode="normal" in="SourceGraphic" in2="effect1_backgroundBlur_4_342" result="shape"/>
</filter>
<filter id="filter4_b_4_342" x="-241.816" y="169.455" width="1118.42" height="1153.64" filterUnits="userSpaceOnUse" color-interpolation-filters="sRGB">
<feFlood flood-opacity="0" result="BackgroundImageFix"/>
<feGaussianBlur in="BackgroundImageFix" stdDeviation="250"/>
<feComposite in2="SourceAlpha" operator="in" result="effect1_backgroundBlur_4_342"/>
<feBlend mode="normal" in="SourceGraphic" in2="effect1_backgroundBlur_4_342" result="shape"/>
</filter>
</defs>
</svg>
