<svg width="31" height="30" viewBox="0 0 31 30" fill="none" xmlns="http://www.w3.org/2000/svg">
<g clip-path="url(#clip0_6_165)">
<path d="M15.5 0C17.55 0 19.4875 0.39375 21.3125 1.18125C23.1375 1.96875 24.7312 3.04375 26.0938 4.40625C27.4563 5.76875 28.5313 7.3625 29.3188 9.1875C30.1063 11.0125 30.5 12.95 30.5 15C30.5 17.05 30.1063 18.9875 29.3188 20.8125C28.5312 22.6375 27.4563 24.2312 26.0938 25.5938C24.7312 26.9563 23.1375 28.0312 21.3125 28.8188C19.4875 29.6063 17.55 30 15.5 30C13.45 30 11.5125 29.6063 9.6875 28.8188C7.8625 28.0312 6.26875 26.9563 4.90625 25.5937C3.54375 24.2312 2.46875 22.6375 1.68125 20.8125C0.89375 18.9875 0.5 17.05 0.5 15C0.5 12.95 0.89375 11.0125 1.68125 9.1875C2.46875 7.3625 3.54375 5.76875 4.90625 4.40625C6.26875 3.04375 7.8625 1.96875 9.6875 1.18125C11.5125 0.39375 13.45 0 15.5 0ZM15.5 2.25C12 2.25 9 3.5 6.5 6C4 8.5 2.75 11.5 2.75 15C2.75 18.5 4 21.5 6.5 24C9 26.5 12 27.75 15.5 27.75C19 27.75 22 26.5 24.5 24C27 21.5 28.25 18.5 28.25 15C28.25 11.5 27 8.5 24.5 6C22 3.5 19 2.25 15.5 2.25Z" fill="#909BBD"/>
<path d="M23.5 9.81273L15.5 14.9064L23.5 20V9.81273Z" fill="#909BBD"/>
<path d="M14.5 9.81273L6.5 14.9064L14.5 20L14.5 9.81273Z" fill="#909BBD"/>
</g>
<defs>
<clipPath id="clip0_6_165">
<rect width="30" height="30" fill="white" transform="matrix(-1 0 0 -1 30.5 30)"/>
</clipPath>
</defs>
</svg>
