<svg width="31" height="30" viewBox="0 0 31 30" fill="none" xmlns="http://www.w3.org/2000/svg">
<g clip-path="url(#clip0_6_81)">
<path fill-rule="evenodd" clip-rule="evenodd" d="M0.5 15C0.5 6.71825 7.21825 0 15.5 0C23.7818 0 30.5 6.71825 30.5 15C30.5 23.2818 23.7818 30 15.5 30C7.21825 30 0.5 23.2818 0.5 15ZM15.5 2.30769C8.49325 2.30769 2.80769 7.99325 2.80769 15C2.80769 22.0068 8.49325 27.6923 15.5 27.6923C22.5068 27.6923 28.1923 22.0068 28.1923 15C28.1923 7.99325 22.5068 2.30769 15.5 2.30769Z" fill="#909BBD"/>
<path fill-rule="evenodd" clip-rule="evenodd" d="M12.0384 9.23077C12.6759 9.23077 13.1923 9.74715 13.1923 10.3846V19.6154C13.1923 20.2529 12.6759 20.7693 12.0384 20.7693C11.4009 20.7693 10.8846 20.2529 10.8846 19.6154V10.3846C10.8846 9.74715 11.4009 9.23077 12.0384 9.23077Z" fill="#909BBD"/>
<path fill-rule="evenodd" clip-rule="evenodd" d="M18.9616 9.23077C19.5991 9.23077 20.1154 9.74715 20.1154 10.3846V19.6154C20.1154 20.2529 19.5991 20.7693 18.9616 20.7693C18.3241 20.7693 17.8077 20.2529 17.8077 19.6154V10.3846C17.8077 9.74715 18.3241 9.23077 18.9616 9.23077Z" fill="#909BBD"/>
</g>
<defs>
<clipPath id="clip0_6_81">
<rect width="30" height="30" fill="white" transform="translate(0.5)"/>
</clipPath>
</defs>
</svg>
